<svg xmlns="http://www.w3.org/2000/svg" width="300" height="300" viewBox="0 0 300 300" version="1.1"><path d="M 142.540 47.935 C 142.222 48.450, 143.433 49.053, 145.231 49.275 C 147.796 49.593, 147.488 49.714, 143.799 49.840 C 131.234 50.268, 111.972 56.615, 97.401 65.130 C 89.957 69.480, 89.170 69.746, 91.128 67.250 C 92.370 65.666, 92.335 65.630, 90.761 66.863 C 89.805 67.613, 89.244 68.586, 89.515 69.025 C 89.787 69.464, 87.863 71.398, 85.241 73.323 C 77.015 79.362, 64.816 93.109, 59.500 102.330 C 57.771 105.330, 56.444 106.719, 55.997 105.996 C 55.496 105.185, 55.088 105.327, 54.651 106.468 C 54.284 107.424, 54.434 107.850, 55.011 107.493 C 56.338 106.673, 56.429 106.366, 52.500 116 C 50.594 120.675, 49.026 125.287, 49.017 126.250 C 49.008 127.213, 48.325 128, 47.500 128 C 46.675 128, 46 128.450, 46 129 C 46 129.550, 46.450 130, 47 130 C 47.550 130, 48 130.450, 48 131 C 48 131.550, 47.325 132, 46.500 132 C 45.675 132, 44.994 132.787, 44.986 133.750 C 44.979 134.713, 44.683 136.583, 44.329 137.906 C 43.877 139.594, 44.031 140.099, 44.842 139.597 C 45.609 139.124, 46 139.783, 46 141.548 C 46 143.507, 45.602 144.061, 44.500 143.638 C 43.286 143.173, 43.027 143.963, 43.142 147.781 C 43.284 152.500, 43.284 152.500, 44 148.500 C 44.446 146.011, 44.732 149.979, 44.758 159 C 44.783 167.612, 44.476 172.485, 44 171 C 43.241 168.631, 43.194 168.671, 43.100 171.750 C 43.030 174.017, 43.454 175, 44.500 175 C 45.443 175, 46 175.951, 46 177.559 C 46 179.010, 45.567 179.851, 45 179.500 C 44.450 179.160, 44 179.632, 44 180.548 C 44 181.563, 44.545 182.005, 45.397 181.678 C 46.418 181.286, 46.981 182.389, 47.488 185.771 C 52.581 219.731, 99.767 267, 128.575 267 C 129.621 267, 130.006 267.543, 129.638 268.500 C 129.233 269.558, 129.717 269.995, 131.281 269.985 C 133.123 269.972, 133.245 269.789, 132 268.906 C 130.860 268.098, 131.219 267.991, 133.500 268.460 C 147.997 271.440, 174.378 269.269, 188.388 263.944 C 194.294 261.699, 195.393 261.555, 194.405 263.155 C 193.949 263.892, 194.132 264.037, 194.912 263.554 C 195.584 263.139, 195.877 262.543, 195.563 262.230 C 195.250 261.916, 198.680 259.690, 203.187 257.282 C 239.271 238.002, 259.452 205.722, 261.642 163.785 C 262.007 156.792, 262.687 151.306, 263.153 151.594 C 263.619 151.882, 263.955 150.629, 263.900 148.809 C 263.807 145.727, 263.748 145.671, 263.038 148 C 262.491 149.793, 262.123 150.076, 261.737 149 C 260.555 145.704, 258.858 130.039, 259.560 128.904 C 260.004 128.185, 259.890 127.950, 259.281 128.326 C 258.688 128.693, 257.302 126.331, 255.999 122.731 C 240.837 80.841, 199.211 50, 157.834 50 C 153.115 50, 151.096 49.653, 151.549 48.921 C 151.978 48.226, 154.002 48.088, 157.236 48.532 C 160.813 49.024, 162.058 48.903, 161.569 48.111 C 160.725 46.745, 143.375 46.585, 142.540 47.935 M 143 57.446 C 136.842 59.179, 131.382 61.573, 130.563 62.898 C 129.592 64.469, 130.422 64.274, 134.209 62.039 C 142.110 57.378, 158.417 55.708, 163.825 59.006 C 165.191 59.839, 165.038 59.943, 163 59.571 C 155.654 58.231, 152.957 58.121, 147.347 58.932 C 143.963 59.421, 139.013 60.850, 136.347 62.107 C 133.681 63.365, 130.826 64.337, 130.003 64.267 C 127.711 64.072, 122.409 68.544, 117.986 74.403 C 113.742 80.023, 113.257 81.149, 115.250 80.750 C 115.938 80.612, 116.438 81.287, 116.361 82.250 C 116.272 83.379, 116.931 84, 118.218 84 C 124.512 84, 139.923 94.323, 146.746 103.109 C 151.453 109.170, 151.453 109.170, 153.815 106.335 C 155.503 104.309, 155.867 104.123, 155.089 105.684 C 153.123 109.628, 153.938 109.151, 158.295 103.807 C 163.588 97.313, 175.697 88.934, 183.591 86.303 C 189.580 84.307, 190.396 83.230, 188.749 79.500 C 188.091 78.011, 188.388 78.139, 189.911 80 C 192.957 83.724, 192.423 81.475, 189.123 76.680 C 178.076 60.631, 159.380 52.835, 143 57.446 M 107.344 65.370 C 94.628 71.980, 90.492 74.710, 82.527 81.750 C 76.328 87.229, 77.663 87.272, 84.361 81.809 C 89.500 77.618, 89.500 77.618, 86.054 81.309 C 84.158 83.339, 83.033 85.029, 83.554 85.063 C 84.074 85.098, 83.422 85.558, 82.105 86.085 C 76.934 88.153, 80.891 87.693, 87.500 85.457 C 91.350 84.155, 97.554 82.785, 101.288 82.412 C 108.075 81.734, 108.075 81.734, 112.393 75.117 C 114.768 71.478, 118.372 66.813, 120.403 64.750 C 122.434 62.688, 123.651 61, 123.107 61 C 122.563 61, 121.852 61.430, 121.527 61.956 C 121.202 62.482, 120.223 62.639, 119.351 62.304 C 118.048 61.805, 118.188 61.462, 120.133 60.383 C 121.555 59.595, 121.901 59.067, 121 59.061 C 120.175 59.055, 114.030 61.894, 107.344 65.370 M 183 60.098 C 183 60.594, 183.635 61, 184.412 61 C 185.188 61, 185.709 61.778, 185.569 62.729 C 185.430 63.680, 187.077 66.686, 189.230 69.410 C 191.382 72.133, 194.013 76.065, 195.075 78.148 C 196.496 80.933, 197.446 81.766, 198.668 81.297 C 199.783 80.869, 200.091 81.044, 199.605 81.830 C 199.081 82.677, 200.485 82.964, 204.691 82.868 C 209.841 82.752, 210.103 82.653, 207 82 C 203.500 81.263, 203.500 81.263, 207.250 81.132 C 209.820 81.041, 211 81.430, 211 82.368 C 211 83.188, 212.503 83.950, 214.750 84.270 C 216.813 84.563, 219.253 85.107, 220.173 85.479 C 222.218 86.305, 222.098 84.051, 219.956 81.397 C 218.688 79.826, 218.842 79.845, 221.147 81.547 C 222.603 82.621, 223.589 83.838, 223.338 84.250 C 223.087 84.662, 223.653 85, 224.596 85 C 231.309 85, 200.005 64.314, 187.679 60.604 C 185.106 59.829, 183 59.602, 183 60.098 M 90.487 88.799 C 73.738 94.590, 56.481 115.108, 59.329 125.844 C 59.576 126.774, 59.819 126.321, 59.884 124.809 C 59.948 123.329, 60.398 121.872, 60.884 121.572 C 61.378 121.266, 61.559 123.775, 61.294 127.263 C 61.034 130.693, 61.263 135.412, 61.804 137.750 C 62.869 142.353, 62.481 143.357, 61.031 139.750 C 60.160 137.582, 60.124 137.576, 60.063 139.590 C 59.992 141.956, 65.930 154.403, 66.743 153.590 C 67.033 153.300, 66.535 151.939, 65.635 150.566 C 63.061 146.637, 63.728 146.162, 66.392 150.028 C 67.708 151.938, 68.584 153.832, 68.340 154.239 C 68.096 154.645, 68.594 154.709, 69.448 154.382 C 70.302 154.054, 71 153.358, 71 152.834 C 71 152.310, 70.550 152.160, 70 152.500 C 68.035 153.714, 69.053 152.326, 72.246 149.437 C 75.369 146.612, 75.400 146.605, 73.072 149.250 C 69.993 152.748, 71.261 152.802, 75.356 149.347 C 79.620 145.749, 91.103 140.344, 97.550 138.901 C 101.294 138.063, 102.678 137.324, 102.308 136.360 C 101.997 135.549, 102.458 135, 103.452 135 C 104.368 135, 104.840 135.450, 104.500 136 C 104.139 136.584, 105.165 137, 106.967 137 C 110.051 137, 110.051 137, 108.477 133.750 C 107.337 131.396, 107.291 130.982, 108.312 132.250 C 110.868 135.425, 110.955 134.075, 108.509 129.204 C 104.013 120.254, 102.339 103.735, 104.842 93.027 C 105.417 90.567, 105.688 88.355, 105.444 88.110 C 105.200 87.866, 105 88.114, 105 88.660 C 105 89.207, 103.655 89.456, 102.010 89.215 C 100.366 88.973, 99.267 88.376, 99.569 87.888 C 100.448 86.466, 95.919 86.920, 90.487 88.799 M 112 87.442 C 112 87.707, 113.845 88.420, 116.101 89.027 C 118.356 89.635, 119.974 90.360, 119.695 90.639 C 119.416 90.918, 117.570 90.699, 115.594 90.154 C 112.956 89.425, 111.981 89.472, 111.930 90.331 C 111.891 90.974, 111.530 90.662, 111.127 89.638 C 110.579 88.245, 110.084 89.122, 109.160 93.126 C 108.326 96.741, 108.262 98.587, 108.963 98.821 C 109.580 99.027, 109.929 102.271, 109.823 106.833 C 109.647 114.500, 109.647 114.500, 109 107.500 C 108.353 100.500, 108.353 100.500, 108.177 107.040 C 108.079 110.637, 108.674 116.169, 109.499 119.334 C 111.099 125.478, 114.882 133.531, 114.956 130.950 C 114.980 130.097, 114.662 128.963, 114.250 128.429 C 113.838 127.895, 114.285 128.302, 115.245 129.333 C 116.204 130.364, 116.740 131.611, 116.436 132.104 C 115.240 134.039, 117.124 132.790, 122.506 128.080 C 128.385 122.935, 134.328 119.693, 142.135 117.370 C 147.116 115.888, 148.953 112.966, 146.735 110.052 C 142.077 103.934, 137.663 99, 136.848 99 C 136.317 99, 136.203 99.520, 136.595 100.155 C 137.041 100.876, 136.869 101.037, 136.138 100.585 C 135.494 100.187, 135.217 99.458, 135.522 98.965 C 136.335 97.649, 128.585 92.358, 122.645 90.173 C 116.584 87.944, 112 86.768, 112 87.442 M 186.776 89.479 C 174.359 92.897, 155.369 109.125, 158.861 113.333 C 159.478 114.076, 159.687 114.980, 159.325 115.342 C 158.963 115.704, 159.633 116, 160.813 116 C 166.227 116, 177.186 122.112, 184.750 129.350 C 187.088 131.586, 189 132.853, 189 132.164 C 189 131.476, 189.787 131.045, 190.750 131.206 C 195.405 131.988, 200.148 104.154, 196.919 95 C 196.044 92.521, 196.040 92.523, 196.384 95.274 C 196.878 99.215, 195.326 99.653, 194.736 95.740 C 194.467 93.958, 194.642 92.350, 195.124 92.167 C 197.586 91.230, 195.476 90.218, 191.750 90.548 C 187.500 90.924, 187.500 90.924, 191 89.538 C 195.399 87.796, 193.011 87.763, 186.776 89.479 M 205.500 89 C 209.500 89.716, 209.500 89.716, 205.691 89.858 C 203.436 89.942, 202.134 90.408, 202.500 91 C 202.840 91.550, 202.641 92, 202.059 92 C 201.477 92, 201 91.250, 201 90.333 C 201 89.417, 200.766 88.901, 200.480 89.186 C 200.194 89.472, 200.691 92.810, 201.584 96.603 C 204.126 107.406, 202.460 119.439, 196.477 133.500 C 195.691 135.346, 195.771 135.384, 197.505 134 C 198.598 133.127, 199.070 133.023, 198.633 133.750 C 198.127 134.593, 198.572 135, 200 135 C 201.165 135, 201.852 135.430, 201.527 135.956 C 201.202 136.482, 200.163 136.665, 199.218 136.362 C 197.759 135.894, 197.726 135.974, 199 136.890 C 199.825 137.484, 201.521 137.976, 202.769 137.985 C 209.281 138.029, 226.317 146.052, 232.837 152.146 C 236.278 155.361, 237.210 155.710, 236.346 153.459 C 236.021 152.612, 236.228 152.049, 236.807 152.209 C 237.385 152.369, 238.613 151.600, 239.535 150.500 C 241.111 148.620, 241.113 148.665, 239.582 151.250 C 238.608 152.895, 238.390 154, 239.040 154 C 239.637 154, 241.409 151.169, 242.978 147.708 C 246.234 140.528, 247.954 133.292, 246.138 134.414 C 245.344 134.906, 245 133.572, 245 130 C 245 124.125, 246.920 123.953, 247.136 129.809 C 247.225 132.209, 247.426 132.700, 247.711 131.211 C 249.065 124.145, 238.475 100.352, 234.946 102.533 C 234.432 102.851, 234.317 102.339, 234.685 101.378 C 235.198 100.041, 234.959 99.802, 233.622 100.315 C 232.536 100.732, 232.138 100.586, 232.548 99.922 C 234.784 96.305, 216.605 87.899, 207.072 88.142 C 201.623 88.281, 201.588 88.300, 205.500 89 M 141.214 121.891 C 135.577 123.838, 126.851 129.401, 122.995 133.505 C 120.316 136.357, 121.305 136.873, 124.421 134.250 C 126.469 132.526, 126.474 132.531, 124.748 134.581 C 123.784 135.726, 123.334 137.035, 123.748 137.490 C 124.162 137.946, 123.600 138.027, 122.500 137.670 C 118.916 136.508, 123.477 139.536, 135.972 146.615 C 146.132 152.371, 147.578 152.930, 148.621 151.504 C 149.527 150.264, 149.918 150.194, 150.320 151.197 C 150.607 151.914, 150.825 145.300, 150.805 136.500 C 150.785 127.700, 150.564 121.276, 150.315 122.225 C 149.954 123.603, 149.597 123.704, 148.542 122.725 C 147.578 121.831, 147.529 121.302, 148.361 120.765 C 150.465 119.408, 146.673 120.006, 141.214 121.891 M 159.750 121.031 C 162.559 122.160, 162.698 122.995, 159.959 122.279 C 157.964 121.757, 157.921 122.101, 158.051 137.373 C 158.124 145.968, 158.460 153, 158.797 153 C 159.134 153, 163.317 150.523, 168.092 147.496 C 172.867 144.469, 178.477 141.281, 180.558 140.411 C 183.176 139.317, 183.945 138.584, 183.051 138.032 C 182.049 137.412, 182.142 137.020, 183.467 136.278 C 187.132 134.227, 165.926 119.863, 159.528 120.063 C 157.638 120.122, 157.653 120.188, 159.750 121.031 M 254 137.933 C 254 138.446, 253.169 139.129, 252.153 139.452 C 251.063 139.798, 249.797 141.773, 249.065 144.269 C 248.383 146.596, 246.332 151.200, 244.507 154.500 C 241.189 160.500, 241.189 160.500, 245.083 167.500 C 247.224 171.350, 248.982 175.033, 248.988 175.685 C 249.031 179.957, 251.140 182.520, 252.540 180 C 253.929 177.500, 253.929 177.500, 254.083 180 C 254.187 181.685, 254.656 180.871, 255.523 177.500 C 256.996 171.767, 257.394 159.255, 256 162.500 C 255.392 163.916, 255.133 162.748, 255.115 158.500 C 255.091 152.641, 255.122 152.570, 256.454 155.500 C 257.764 158.382, 257.799 158.284, 257.333 153 C 256.542 144.031, 254 132.540, 254 137.933 M 54.242 138.753 C 53.559 138.980, 53 140.453, 53 142.024 C 53 143.596, 52.631 145.110, 52.181 145.388 C 51.730 145.667, 51.486 144.456, 51.638 142.697 C 51.791 140.939, 51.249 142.650, 50.434 146.500 C 49.620 150.350, 49.101 156.425, 49.281 160 C 49.608 166.500, 49.608 166.500, 49.819 159 C 50.143 147.496, 51.730 147.345, 51.611 158.829 C 51.554 164.374, 51.113 168.570, 50.619 168.265 C 49.786 167.750, 50.278 173.483, 51.667 180.477 C 52.259 183.454, 52.259 183.454, 54.073 178.977 C 55.184 176.238, 55.910 175.296, 55.944 176.550 C 55.975 177.678, 55.460 179.140, 54.800 179.800 C 53.993 180.607, 53.930 181.330, 54.609 182.009 C 55.287 182.687, 56.051 181.295, 56.941 177.759 C 57.669 174.866, 58.880 171.285, 59.632 169.800 C 61.236 166.633, 61.413 164.627, 60.011 165.493 C 59.434 165.850, 59.284 165.424, 59.651 164.468 C 60.111 163.269, 60.479 163.157, 61.032 164.051 C 61.561 164.908, 62.143 164.601, 62.992 163.014 C 63.944 161.237, 63.939 160.920, 62.970 161.519 C 62.169 162.014, 61.916 161.795, 62.245 160.889 C 62.523 160.125, 63.261 159.614, 63.886 159.754 C 64.510 159.893, 63.611 157.508, 61.887 154.453 C 60.163 151.399, 58.017 146.524, 57.119 143.619 C 56.106 140.345, 55.013 138.496, 54.242 138.753 M 198 143.059 C 198 144.364, 197.576 144.856, 196.842 144.403 C 196.031 143.901, 195.877 144.406, 196.329 146.094 C 196.683 147.417, 196.979 148.838, 196.986 149.250 C 196.994 149.662, 197.675 150, 198.500 150 C 199.325 150, 200 150.477, 200 151.059 C 200 151.641, 199.550 151.840, 199 151.500 C 198.360 151.105, 198.006 154.236, 198.015 160.191 C 198.026 166.571, 198.336 169.028, 199 168 C 199.828 166.718, 199.972 166.754, 199.985 168.250 C 199.993 169.213, 199.325 170, 198.500 170 C 197.675 170, 196.994 170.338, 196.986 170.750 C 196.979 171.162, 196.701 172.512, 196.370 173.750 C 195.854 175.673, 196.156 176, 198.442 176 C 199.972 176, 200.853 176.429, 200.500 177 C 199.764 178.190, 202.510 178.150, 206 176.919 C 208.495 176.039, 208.494 176.038, 205.750 176.380 C 201.573 176.901, 202.464 175.345, 206.750 174.633 C 208.813 174.291, 212.975 172.877, 216 171.491 C 220.260 169.539, 220.950 169.402, 219.058 170.885 C 217.715 171.937, 214.790 173.357, 212.558 174.040 C 210.326 174.723, 209.055 175.478, 209.733 175.718 C 214.762 177.501, 234.512 163.328, 231.554 160.060 C 229.631 157.935, 229.631 157.920, 231.556 158.546 C 235.281 159.759, 224.452 151.035, 218 147.627 C 206.755 141.686, 198 139.686, 198 143.059 M 97.500 142.934 C 89.694 144.833, 78.457 151.312, 79.643 153.231 C 80.055 153.898, 79.836 154.017, 79.068 153.542 C 77.711 152.703, 71 158.553, 71 160.576 C 71 162.467, 79.666 169.066, 81.317 168.432 C 82.131 168.119, 83.092 168.339, 83.451 168.920 C 83.858 169.579, 83.425 169.758, 82.302 169.395 C 80.970 168.966, 81.108 169.312, 82.832 170.723 C 89.035 175.802, 110.833 181.335, 109.344 177.453 C 108.865 176.205, 109.022 175.896, 109.870 176.420 C 110.731 176.952, 110.927 176.494, 110.548 174.834 C 108.489 165.802, 108.046 162.904, 108.024 158.333 C 108.011 155.492, 107.662 152.978, 107.250 152.747 C 106.838 152.517, 107.013 152.446, 107.640 152.590 C 108.267 152.735, 109.023 151.648, 109.320 150.176 C 109.617 148.704, 110.142 146.771, 110.487 145.879 C 111.347 143.660, 109.379 143.108, 103.689 143.971 C 98.902 144.698, 98.280 143.568, 103 142.721 C 105.500 142.272, 105.500 142.272, 103 142.239 C 101.625 142.220, 99.150 142.533, 97.500 142.934 M 181.500 144.804 C 173.217 149.388, 160.409 157.958, 161.809 157.980 C 162.529 157.991, 162.840 158.450, 162.500 159 C 162.160 159.550, 162.273 160, 162.750 160 C 163.227 160, 164.491 160.700, 165.559 161.555 C 167.434 163.057, 167.426 163.074, 165.316 162.055 C 160.629 159.791, 160.776 161.189, 165.500 163.813 C 168.250 165.340, 174.411 168.907, 179.190 171.741 C 187.880 176.893, 187.880 176.893, 189.057 173.327 C 189.834 170.973, 190.497 170.185, 191.006 171.010 C 191.836 172.353, 194.082 163.551, 193.891 159.701 C 193.831 158.490, 193.214 160.200, 192.519 163.500 C 191.256 169.500, 191.256 169.500, 191.123 161 C 190.982 152.066, 189.554 145.001, 187.639 143.765 C 186.826 143.241, 186.864 143.026, 187.775 143.015 C 189.205 142.998, 190.769 146.531, 191.974 152.500 C 192.548 155.346, 192.812 155.758, 192.890 153.928 C 193.318 143.885, 189.167 140.560, 181.500 144.804 M 114.503 147.250 C 111.371 155.015, 111.771 172.495, 115.035 170.478 C 115.553 170.158, 115.723 170.559, 115.412 171.370 C 112.446 179.098, 131.794 172.689, 145.998 161.238 C 146.273 161.017, 145.686 160.244, 144.695 159.519 C 143.518 158.658, 143.306 158.065, 144.083 157.806 C 145.155 157.448, 131.547 148.832, 123.159 144.557 C 119.998 142.946, 119.713 142.950, 117.866 144.621 C 116.092 146.227, 115.973 146.233, 116.564 144.694 C 116.921 143.762, 116.990 143, 116.716 143 C 116.441 143, 115.446 144.912, 114.503 147.250 M 69.128 166.664 C 70.370 168.170, 70.290 168.216, 68.283 167.146 C 65.261 165.536, 59.095 178.205, 62.021 180.013 C 62.700 180.433, 62.917 181.325, 62.503 181.995 C 61.924 182.932, 61.552 182.900, 60.890 181.857 C 60.266 180.872, 60.026 181.133, 60.015 182.809 C 60.007 184.079, 60.394 184.875, 60.875 184.577 C 61.356 184.280, 61.750 187.001, 61.750 190.625 C 61.750 197.970, 60.145 197.440, 59.855 190 C 59.709 186.256, 59.612 186.051, 59.275 188.777 C 58.195 197.503, 64.059 211.847, 72.067 220.068 C 81.572 229.827, 104.375 236.607, 103.372 229.376 C 103.027 226.894, 103.111 226.774, 103.984 228.500 C 104.802 230.118, 104.886 229.883, 104.422 227.270 C 104.108 225.494, 103.816 219.419, 103.774 213.770 C 103.728 207.537, 103.404 204.483, 102.949 206 C 101.777 209.909, 101.883 206.917, 103.138 200.667 C 103.764 197.550, 104.653 195, 105.113 195 C 105.574 195, 105.512 196.154, 104.975 197.565 C 102.473 204.147, 104.418 201.584, 107.301 194.500 C 110.814 185.870, 110.637 185.041, 105.281 185.015 C 103.063 185.005, 102.217 184.598, 102.559 183.706 C 102.903 182.809, 101.247 182.038, 97.167 181.195 C 89.374 179.586, 80.246 174.926, 74.151 169.446 C 69.210 165.003, 66.536 163.523, 69.128 166.664 M 160 166.993 C 162.180 168.860, 162.221 168.998, 160.316 168.067 C 159.114 167.480, 157.989 166.999, 157.816 166.999 C 157.642 166.998, 157.634 174.211, 157.798 183.028 C 158.003 194.034, 158.430 198.853, 159.160 198.401 C 159.745 198.040, 160.582 198.323, 161.019 199.031 C 162.641 201.656, 175.629 194.339, 182.500 186.931 C 186.500 182.618, 186.500 182.618, 181.015 187.423 C 175.110 192.596, 166.431 197.981, 164 197.981 C 163.175 197.981, 164.872 196.876, 167.772 195.526 C 173.189 193.004, 184.344 183.366, 183.474 181.959 C 183.207 181.525, 183.445 181.018, 184.004 180.832 C 184.932 180.523, 161.286 165.926, 158.642 165.176 C 158.014 164.998, 158.625 165.816, 160 166.993 M 230.514 170.124 C 223.597 175.769, 212.764 180.593, 202.598 182.553 C 198.694 183.306, 197.188 183.805, 199.250 183.662 C 201.313 183.519, 203 183.761, 203 184.201 C 203 184.640, 201.762 185.007, 200.250 185.015 C 195.154 185.044, 194.717 186.110, 197.354 192.075 C 201.891 202.332, 203.171 217.441, 200.377 227.750 C 199.921 229.431, 200.191 230, 201.442 230 C 202.364 230, 202.840 230.450, 202.500 231 C 202.120 231.614, 203.736 231.994, 206.691 231.985 C 210.051 231.974, 211.056 231.689, 210.028 231.038 C 208.276 229.930, 209.082 229.556, 215.500 228.494 C 224.821 226.953, 233.949 220.376, 239.087 211.500 C 240.679 208.750, 241.985 206.974, 241.991 207.554 C 242.052 214.419, 227.094 226.892, 215.018 230.047 C 211.637 230.930, 211.668 230.946, 215.833 230.458 C 229.291 228.880, 243.841 213.851, 245.434 199.881 C 245.709 197.472, 245.694 196.400, 245.402 197.500 C 244.050 202.581, 242.765 206.099, 242.396 205.729 C 242.173 205.506, 242.408 204.014, 242.918 202.412 C 243.428 200.810, 244.159 197.700, 244.542 195.500 C 245.120 192.185, 245.378 191.842, 246.049 193.500 C 246.628 194.928, 246.875 194.070, 246.914 190.500 C 246.948 187.409, 246.646 186.009, 246.124 186.834 C 245.443 187.908, 245.160 187.859, 244.671 186.584 C 244.336 185.713, 244.499 185, 245.031 185 C 247.229 185, 244.764 174.949, 241.081 168.893 C 239.305 165.972, 239.305 165.972, 236.402 168.186 C 233.500 170.400, 233.500 170.400, 235.411 168.194 C 238.813 164.265, 236.644 165.120, 230.514 170.124 M 136 173.115 C 123.842 180.029, 119.362 183.052, 123.391 181.624 C 124.908 181.087, 125.058 181.225, 124.150 182.319 C 123.527 183.070, 123.337 184.004, 123.728 184.395 C 124.119 184.786, 123.553 184.789, 122.470 184.403 C 119.710 183.417, 126.285 190.347, 131.642 194.069 C 136.454 197.413, 146.471 201.383, 148.266 200.657 C 148.945 200.382, 148.488 200.122, 147.250 200.079 C 146.012 200.036, 145 199.592, 145 199.094 C 145 198.595, 145.900 198.423, 147 198.710 C 148.759 199.170, 149.019 198.707, 149.157 194.867 C 149.314 190.500, 149.314 190.500, 150 195.500 C 150.445 198.743, 150.741 194.603, 150.843 183.715 C 151 166.930, 151 166.930, 148.750 168.129 C 146.710 169.216, 146.628 169.172, 147.872 167.664 C 149.862 165.252, 149.690 165.331, 136 173.115 M 112.569 192.079 C 109.011 200.891, 108.022 205.656, 108.016 214 C 108.012 221.896, 109.763 231.959, 110.689 229.356 C 110.913 228.727, 111.884 228.418, 112.847 228.670 C 113.811 228.922, 116.584 228.444, 119.010 227.608 C 125.313 225.437, 125.164 226.415, 118.820 228.852 C 115.894 229.976, 114.175 230.909, 115 230.924 C 122.174 231.060, 146.776 213.683, 144.538 210.062 C 144.160 209.450, 144.222 209.015, 144.676 209.094 C 146.891 209.478, 147.195 208.858, 145.441 207.532 C 143.526 206.083, 143.527 206.063, 145.500 206.015 C 146.600 205.988, 143.888 204.501, 139.474 202.711 C 130.749 199.172, 126.614 196.628, 120.588 191.093 C 116.676 187.500, 116.676 187.500, 119.015 191 C 121.355 194.500, 121.355 194.500, 118.678 192.076 C 117.205 190.742, 115.968 190.067, 115.930 190.576 C 115.891 191.084, 115.521 190.636, 115.107 189.579 C 114.477 187.973, 114.062 188.382, 112.569 192.079 M 184.500 192.578 C 179.433 196.968, 171.619 201.523, 164.804 204.060 C 161.887 205.146, 160.512 205.844, 161.750 205.611 C 162.988 205.378, 164 205.595, 164 206.094 C 164 206.592, 163.325 207, 162.500 207 C 160.544 207, 160.606 207.873, 162.743 210.421 C 163.972 211.887, 163.630 211.763, 161.582 210 C 158.168 207.061, 158.959 208.817, 163.722 214.750 C 165.599 217.088, 167.638 219, 168.254 219 C 168.870 219, 168.052 217.537, 166.437 215.750 C 163.500 212.500, 163.500 212.500, 166.714 215.403 C 168.482 217, 169.711 218.658, 169.446 219.088 C 168.360 220.844, 182.237 229.037, 188.500 230.337 C 190.648 230.783, 190.080 230.279, 186.500 228.563 C 180.354 225.617, 180.813 225.360, 187.608 227.942 C 191.437 229.398, 193.002 229.598, 193.858 228.742 C 194.714 227.886, 195.025 227.963, 195.100 229.050 C 195.287 231.779, 196.801 225.506, 196.801 222 C 196.801 218.833, 196.725 218.738, 196 221 C 195.465 222.671, 195.166 220.461, 195.100 214.332 C 195.045 209.289, 194.699 204.378, 194.330 203.418 C 193.873 202.227, 194.032 201.902, 194.830 202.395 C 195.474 202.793, 196.036 204.554, 196.079 206.309 C 196.122 208.064, 196.393 208.913, 196.680 208.196 C 197.551 206.024, 196.001 200, 194.571 200 C 193.835 200, 192.978 198.988, 192.666 197.750 C 192.108 195.535, 192.124 195.531, 193.653 197.500 C 195.159 199.439, 195.185 199.423, 194.479 197 C 193.421 193.369, 191.087 189.256, 191.040 190.941 C 191.008 192.099, 190.755 192.061, 189.750 190.748 C 188.626 189.279, 188.096 189.464, 184.500 192.578 M 147.231 215.253 C 141.224 223.176, 129.648 231.239, 120.250 234.047 C 115.842 235.364, 115.234 236.563, 117.067 240.316 C 117.978 242.181, 117.836 242.135, 116.089 240 C 113.266 236.549, 113.485 238.225, 116.477 242.963 C 131.221 266.320, 161.889 269.885, 182.658 250.656 C 193.693 240.440, 194.067 236.958, 184.500 233.527 C 176.089 230.510, 168.437 225.270, 161.497 217.774 C 153.424 209.054, 152.107 208.821, 147.231 215.253 M 83 233.536 C 83 234.729, 85.541 236.656, 86.784 236.405 C 87.480 236.265, 87.586 236.380, 87.019 236.660 C 86.452 236.941, 86.293 237.695, 86.666 238.335 C 87.039 238.976, 86.364 238.640, 85.166 237.589 C 83.968 236.539, 82.754 235.913, 82.468 236.198 C 81.819 236.847, 88.519 242.315, 96.809 247.902 C 105.892 254.024, 126.447 263.291, 120.766 258.703 C 118.780 257.099, 119.425 255.842, 121.771 256.743 C 122.638 257.075, 121.517 255.517, 119.281 253.281 C 117.044 251.044, 113.677 246.578, 111.799 243.357 C 108.292 237.342, 103.001 234.763, 100.956 238.072 C 100.541 238.742, 99.453 239.004, 98.538 238.653 C 97.622 238.302, 97.153 237.561, 97.496 237.007 C 97.866 236.408, 96.779 236.006, 94.809 236.015 C 92.305 236.027, 91.865 236.266, 93 237 C 94.216 237.786, 94.081 237.972, 92.281 237.985 C 90.717 237.995, 90.233 237.558, 90.638 236.500 C 91.041 235.450, 90.562 235, 89.041 235 C 87.846 235, 85.998 234.534, 84.934 233.965 C 83.870 233.395, 83 233.203, 83 233.536 M 217.500 234.646 C 215.300 235.473, 209.990 236.407, 205.699 236.721 C 199.865 237.149, 198.024 237.621, 198.398 238.595 C 198.676 239.319, 198.365 239.707, 197.699 239.469 C 197.040 239.233, 195.671 240.840, 194.658 243.040 C 193.645 245.240, 190.558 249.511, 187.798 252.531 C 185.038 255.551, 183.582 257.714, 184.563 257.337 C 185.947 256.807, 186.203 257.029, 185.705 258.326 C 184.787 260.719, 185.706 260.482, 195.054 255.914 C 205.011 251.048, 217.482 243.149, 216.599 242.266 C 216.254 241.921, 217.216 240.317, 218.736 238.701 C 221.500 235.762, 221.500 235.762, 219 236.344 C 216.731 236.871, 216.754 236.818, 219.250 235.769 C 221.291 234.912, 223.437 232.595, 221.750 233.070 C 221.613 233.109, 219.700 233.818, 217.500 234.646" stroke="none" fill="#04cd7d" fill-rule="evenodd"/><path d="M 142.540 47.935 C 142.222 48.450, 143.433 49.053, 145.231 49.275 C 147.796 49.593, 147.488 49.714, 143.799 49.840 C 131.234 50.268, 111.972 56.615, 97.401 65.130 C 89.957 69.480, 89.170 69.746, 91.128 67.250 C 92.370 65.666, 92.335 65.630, 90.761 66.863 C 89.805 67.613, 89.244 68.586, 89.515 69.025 C 89.787 69.464, 87.863 71.398, 85.241 73.323 C 77.015 79.362, 64.816 93.109, 59.500 102.330 C 57.771 105.330, 56.444 106.719, 55.997 105.996 C 55.496 105.185, 55.088 105.327, 54.651 106.468 C 54.284 107.424, 54.434 107.850, 55.011 107.493 C 56.338 106.673, 56.429 106.366, 52.500 116 C 50.594 120.675, 49.026 125.287, 49.017 126.250 C 49.008 127.213, 48.325 128, 47.500 128 C 46.675 128, 46 128.450, 46 129 C 46 129.550, 46.450 130, 47 130 C 47.550 130, 48 130.450, 48 131 C 48 131.550, 47.325 132, 46.500 132 C 45.675 132, 44.994 132.787, 44.986 133.750 C 44.979 134.713, 44.683 136.583, 44.329 137.906 C 43.877 139.594, 44.031 140.099, 44.842 139.597 C 45.609 139.124, 46 139.783, 46 141.548 C 46 143.507, 45.602 144.061, 44.500 143.638 C 43.286 143.173, 43.027 143.963, 43.142 147.781 C 43.284 152.500, 43.284 152.500, 44 148.500 C 44.446 146.011, 44.732 149.979, 44.758 159 C 44.783 167.612, 44.476 172.485, 44 171 C 43.241 168.631, 43.194 168.671, 43.100 171.750 C 43.030 174.017, 43.454 175, 44.500 175 C 45.443 175, 46 175.951, 46 177.559 C 46 179.010, 45.567 179.851, 45 179.500 C 44.450 179.160, 44 179.632, 44 180.548 C 44 181.563, 44.545 182.005, 45.397 181.678 C 46.418 181.286, 46.981 182.389, 47.488 185.771 C 52.581 219.731, 99.767 267, 128.575 267 C 129.621 267, 130.006 267.543, 129.638 268.500 C 129.233 269.558, 129.717 269.995, 131.281 269.985 C 133.123 269.972, 133.245 269.789, 132 268.906 C 130.860 268.098, 131.219 267.991, 133.500 268.460 C 147.997 271.440, 174.378 269.269, 188.388 263.944 C 194.294 261.699, 195.393 261.555, 194.405 263.155 C 193.949 263.892, 194.132 264.037, 194.912 263.554 C 195.584 263.139, 195.877 262.543, 195.563 262.230 C 195.250 261.916, 198.680 259.690, 203.187 257.282 C 239.271 238.002, 259.452 205.722, 261.642 163.785 C 262.007 156.792, 262.687 151.306, 263.153 151.594 C 263.619 151.882, 263.955 150.629, 263.900 148.809 C 263.807 145.727, 263.748 145.671, 263.038 148 C 262.491 149.793, 262.123 150.076, 261.737 149 C 260.555 145.704, 258.858 130.039, 259.560 128.904 C 260.004 128.185, 259.890 127.950, 259.281 128.326 C 258.688 128.693, 257.302 126.331, 255.999 122.731 C 240.837 80.841, 199.211 50, 157.834 50 C 153.115 50, 151.096 49.653, 151.549 48.921 C 151.978 48.226, 154.002 48.088, 157.236 48.532 C 160.813 49.024, 162.058 48.903, 161.569 48.111 C 160.725 46.745, 143.375 46.585, 142.540 47.935 M 143 57.446 C 136.842 59.179, 131.382 61.573, 130.563 62.898 C 129.592 64.469, 130.422 64.274, 134.209 62.039 C 142.110 57.378, 158.417 55.708, 163.825 59.006 C 165.191 59.839, 165.038 59.943, 163 59.571 C 155.654 58.231, 152.957 58.121, 147.347 58.932 C 143.963 59.421, 139.013 60.850, 136.347 62.107 C 133.681 63.365, 130.826 64.337, 130.003 64.267 C 127.711 64.072, 122.409 68.544, 117.986 74.403 C 113.742 80.023, 113.257 81.149, 115.250 80.750 C 115.938 80.612, 116.438 81.287, 116.361 82.250 C 116.272 83.379, 116.931 84, 118.218 84 C 124.512 84, 139.923 94.323, 146.746 103.109 C 151.453 109.170, 151.453 109.170, 153.815 106.335 C 155.503 104.309, 155.867 104.123, 155.089 105.684 C 153.123 109.628, 153.938 109.151, 158.295 103.807 C 163.588 97.313, 175.697 88.934, 183.591 86.303 C 189.580 84.307, 190.396 83.230, 188.749 79.500 C 188.091 78.011, 188.388 78.139, 189.911 80 C 192.957 83.724, 192.423 81.475, 189.123 76.680 C 178.076 60.631, 159.380 52.835, 143 57.446 M 107.344 65.370 C 94.628 71.980, 90.492 74.710, 82.527 81.750 C 76.328 87.229, 77.663 87.272, 84.361 81.809 C 89.500 77.618, 89.500 77.618, 86.054 81.309 C 84.158 83.339, 83.033 85.029, 83.554 85.063 C 84.074 85.098, 83.422 85.558, 82.105 86.085 C 76.934 88.153, 80.891 87.693, 87.500 85.457 C 91.350 84.155, 97.554 82.785, 101.288 82.412 C 108.075 81.734, 108.075 81.734, 112.393 75.117 C 114.768 71.478, 118.372 66.813, 120.403 64.750 C 122.434 62.688, 123.651 61, 123.107 61 C 122.563 61, 121.852 61.430, 121.527 61.956 C 121.202 62.482, 120.223 62.639, 119.351 62.304 C 118.048 61.805, 118.188 61.462, 120.133 60.383 C 121.555 59.595, 121.901 59.067, 121 59.061 C 120.175 59.055, 114.030 61.894, 107.344 65.370 M 183 60.098 C 183 60.594, 183.635 61, 184.412 61 C 185.188 61, 185.709 61.778, 185.569 62.729 C 185.430 63.680, 187.077 66.686, 189.230 69.410 C 191.382 72.133, 194.013 76.065, 195.075 78.148 C 196.496 80.933, 197.446 81.766, 198.668 81.297 C 199.783 80.869, 200.091 81.044, 199.605 81.830 C 199.081 82.677, 200.485 82.964, 204.691 82.868 C 209.841 82.752, 210.103 82.653, 207 82 C 203.500 81.263, 203.500 81.263, 207.250 81.132 C 209.820 81.041, 211 81.430, 211 82.368 C 211 83.188, 212.503 83.950, 214.750 84.270 C 216.813 84.563, 219.253 85.107, 220.173 85.479 C 222.218 86.305, 222.098 84.051, 219.956 81.397 C 218.688 79.826, 218.842 79.845, 221.147 81.547 C 222.603 82.621, 223.589 83.838, 223.338 84.250 C 223.087 84.662, 223.653 85, 224.596 85 C 231.309 85, 200.005 64.314, 187.679 60.604 C 185.106 59.829, 183 59.602, 183 60.098 M 90.487 88.799 C 73.738 94.590, 56.481 115.108, 59.329 125.844 C 59.576 126.774, 59.819 126.321, 59.884 124.809 C 59.948 123.329, 60.398 121.872, 60.884 121.572 C 61.378 121.266, 61.559 123.775, 61.294 127.263 C 61.034 130.693, 61.263 135.412, 61.804 137.750 C 62.869 142.353, 62.481 143.357, 61.031 139.750 C 60.160 137.582, 60.124 137.576, 60.063 139.590 C 59.992 141.956, 65.930 154.403, 66.743 153.590 C 67.033 153.300, 66.535 151.939, 65.635 150.566 C 63.061 146.637, 63.728 146.162, 66.392 150.028 C 67.708 151.938, 68.584 153.832, 68.340 154.239 C 68.096 154.645, 68.594 154.709, 69.448 154.382 C 70.302 154.054, 71 153.358, 71 152.834 C 71 152.310, 70.550 152.160, 70 152.500 C 68.035 153.714, 69.053 152.326, 72.246 149.437 C 75.369 146.612, 75.400 146.605, 73.072 149.250 C 69.993 152.748, 71.261 152.802, 75.356 149.347 C 79.620 145.749, 91.103 140.344, 97.550 138.901 C 101.294 138.063, 102.678 137.324, 102.308 136.360 C 101.997 135.549, 102.458 135, 103.452 135 C 104.368 135, 104.840 135.450, 104.500 136 C 104.139 136.584, 105.165 137, 106.967 137 C 110.051 137, 110.051 137, 108.477 133.750 C 107.337 131.396, 107.291 130.982, 108.312 132.250 C 110.868 135.425, 110.955 134.075, 108.509 129.204 C 104.013 120.254, 102.339 103.735, 104.842 93.027 C 105.417 90.567, 105.688 88.355, 105.444 88.110 C 105.200 87.866, 105 88.114, 105 88.660 C 105 89.207, 103.655 89.456, 102.010 89.215 C 100.366 88.973, 99.267 88.376, 99.569 87.888 C 100.448 86.466, 95.919 86.920, 90.487 88.799 M 112 87.442 C 112 87.707, 113.845 88.420, 116.101 89.027 C 118.356 89.635, 119.974 90.360, 119.695 90.639 C 119.416 90.918, 117.570 90.699, 115.594 90.154 C 112.956 89.425, 111.981 89.472, 111.930 90.331 C 111.891 90.974, 111.530 90.662, 111.127 89.638 C 110.579 88.245, 110.084 89.122, 109.160 93.126 C 108.326 96.741, 108.262 98.587, 108.963 98.821 C 109.580 99.027, 109.929 102.271, 109.823 106.833 C 109.647 114.500, 109.647 114.500, 109 107.500 C 108.353 100.500, 108.353 100.500, 108.177 107.040 C 108.079 110.637, 108.674 116.169, 109.499 119.334 C 111.099 125.478, 114.882 133.531, 114.956 130.950 C 114.980 130.097, 114.662 128.963, 114.250 128.429 C 113.838 127.895, 114.285 128.302, 115.245 129.333 C 116.204 130.364, 116.740 131.611, 116.436 132.104 C 115.240 134.039, 117.124 132.790, 122.506 128.080 C 128.385 122.935, 134.328 119.693, 142.135 117.370 C 147.116 115.888, 148.953 112.966, 146.735 110.052 C 142.077 103.934, 137.663 99, 136.848 99 C 136.317 99, 136.203 99.520, 136.595 100.155 C 137.041 100.876, 136.869 101.037, 136.138 100.585 C 135.494 100.187, 135.217 99.458, 135.522 98.965 C 136.335 97.649, 128.585 92.358, 122.645 90.173 C 116.584 87.944, 112 86.768, 112 87.442 M 186.776 89.479 C 174.359 92.897, 155.369 109.125, 158.861 113.333 C 159.478 114.076, 159.687 114.980, 159.325 115.342 C 158.963 115.704, 159.633 116, 160.813 116 C 166.227 116, 177.186 122.112, 184.750 129.350 C 187.088 131.586, 189 132.853, 189 132.164 C 189 131.476, 189.787 131.045, 190.750 131.206 C 195.405 131.988, 200.148 104.154, 196.919 95 C 196.044 92.521, 196.040 92.523, 196.384 95.274 C 196.878 99.215, 195.326 99.653, 194.736 95.740 C 194.467 93.958, 194.642 92.350, 195.124 92.167 C 197.586 91.230, 195.476 90.218, 191.750 90.548 C 187.500 90.924, 187.500 90.924, 191 89.538 C 195.399 87.796, 193.011 87.763, 186.776 89.479 M 205.500 89 C 209.500 89.716, 209.500 89.716, 205.691 89.858 C 203.436 89.942, 202.134 90.408, 202.500 91 C 202.840 91.550, 202.641 92, 202.059 92 C 201.477 92, 201 91.250, 201 90.333 C 201 89.417, 200.766 88.901, 200.480 89.186 C 200.194 89.472, 200.691 92.810, 201.584 96.603 C 204.126 107.406, 202.460 119.439, 196.477 133.500 C 195.691 135.346, 195.771 135.384, 197.505 134 C 198.598 133.127, 199.070 133.023, 198.633 133.750 C 198.127 134.593, 198.572 135, 200 135 C 201.165 135, 201.852 135.430, 201.527 135.956 C 201.202 136.482, 200.163 136.665, 199.218 136.362 C 197.759 135.894, 197.726 135.974, 199 136.890 C 199.825 137.484, 201.521 137.976, 202.769 137.985 C 209.281 138.029, 226.317 146.052, 232.837 152.146 C 236.278 155.361, 237.210 155.710, 236.346 153.459 C 236.021 152.612, 236.228 152.049, 236.807 152.209 C 237.385 152.369, 238.613 151.600, 239.535 150.500 C 241.111 148.620, 241.113 148.665, 239.582 151.250 C 238.608 152.895, 238.390 154, 239.040 154 C 239.637 154, 241.409 151.169, 242.978 147.708 C 246.234 140.528, 247.954 133.292, 246.138 134.414 C 245.344 134.906, 245 133.572, 245 130 C 245 124.125, 246.920 123.953, 247.136 129.809 C 247.225 132.209, 247.426 132.700, 247.711 131.211 C 249.065 124.145, 238.475 100.352, 234.946 102.533 C 234.432 102.851, 234.317 102.339, 234.685 101.378 C 235.198 100.041, 234.959 99.802, 233.622 100.315 C 232.536 100.732, 232.138 100.586, 232.548 99.922 C 234.784 96.305, 216.605 87.899, 207.072 88.142 C 201.623 88.281, 201.588 88.300, 205.500 89 M 141.214 121.891 C 135.577 123.838, 126.851 129.401, 122.995 133.505 C 120.316 136.357, 121.305 136.873, 124.421 134.250 C 126.469 132.526, 126.474 132.531, 124.748 134.581 C 123.784 135.726, 123.334 137.035, 123.748 137.490 C 124.162 137.946, 123.600 138.027, 122.500 137.670 C 118.916 136.508, 123.477 139.536, 135.972 146.615 C 146.132 152.371, 147.578 152.930, 148.621 151.504 C 149.527 150.264, 149.918 150.194, 150.320 151.197 C 150.607 151.914, 150.825 145.300, 150.805 136.500 C 150.785 127.700, 150.564 121.276, 150.315 122.225 C 149.954 123.603, 149.597 123.704, 148.542 122.725 C 147.578 121.831, 147.529 121.302, 148.361 120.765 C 150.465 119.408, 146.673 120.006, 141.214 121.891 M 159.750 121.031 C 162.559 122.160, 162.698 122.995, 159.959 122.279 C 157.964 121.757, 157.921 122.101, 158.051 137.373 C 158.124 145.968, 158.460 153, 158.797 153 C 159.134 153, 163.317 150.523, 168.092 147.496 C 172.867 144.469, 178.477 141.281, 180.558 140.411 C 183.176 139.317, 183.945 138.584, 183.051 138.032 C 182.049 137.412, 182.142 137.020, 183.467 136.278 C 187.132 134.227, 165.926 119.863, 159.528 120.063 C 157.638 120.122, 157.653 120.188, 159.750 121.031 M 254 137.933 C 254 138.446, 253.169 139.129, 252.153 139.452 C 251.063 139.798, 249.797 141.773, 249.065 144.269 C 248.383 146.596, 246.332 151.200, 244.507 154.500 C 241.189 160.500, 241.189 160.500, 245.083 167.500 C 247.224 171.350, 248.982 175.033, 248.988 175.685 C 249.031 179.957, 251.140 182.520, 252.540 180 C 253.929 177.500, 253.929 177.500, 254.083 180 C 254.187 181.685, 254.656 180.871, 255.523 177.500 C 256.996 171.767, 257.394 159.255, 256 162.500 C 255.392 163.916, 255.133 162.748, 255.115 158.500 C 255.091 152.641, 255.122 152.570, 256.454 155.500 C 257.764 158.382, 257.799 158.284, 257.333 153 C 256.542 144.031, 254 132.540, 254 137.933 M 54.242 138.753 C 53.559 138.980, 53 140.453, 53 142.024 C 53 143.596, 52.631 145.110, 52.181 145.388 C 51.730 145.667, 51.486 144.456, 51.638 142.697 C 51.791 140.939, 51.249 142.650, 50.434 146.500 C 49.620 150.350, 49.101 156.425, 49.281 160 C 49.608 166.500, 49.608 166.500, 49.819 159 C 50.143 147.496, 51.730 147.345, 51.611 158.829 C 51.554 164.374, 51.113 168.570, 50.619 168.265 C 49.786 167.750, 50.278 173.483, 51.667 180.477 C 52.259 183.454, 52.259 183.454, 54.073 178.977 C 55.184 176.238, 55.910 175.296, 55.944 176.550 C 55.975 177.678, 55.460 179.140, 54.800 179.800 C 53.993 180.607, 53.930 181.330, 54.609 182.009 C 55.287 182.687, 56.051 181.295, 56.941 177.759 C 57.669 174.866, 58.880 171.285, 59.632 169.800 C 61.236 166.633, 61.413 164.627, 60.011 165.493 C 59.434 165.850, 59.284 165.424, 59.651 164.468 C 60.111 163.269, 60.479 163.157, 61.032 164.051 C 61.561 164.908, 62.143 164.601, 62.992 163.014 C 63.944 161.237, 63.939 160.920, 62.970 161.519 C 62.169 162.014, 61.916 161.795, 62.245 160.889 C 62.523 160.125, 63.261 159.614, 63.886 159.754 C 64.510 159.893, 63.611 157.508, 61.887 154.453 C 60.163 151.399, 58.017 146.524, 57.119 143.619 C 56.106 140.345, 55.013 138.496, 54.242 138.753 M 198 143.059 C 198 144.364, 197.576 144.856, 196.842 144.403 C 196.031 143.901, 195.877 144.406, 196.329 146.094 C 196.683 147.417, 196.979 148.838, 196.986 149.250 C 196.994 149.662, 197.675 150, 198.500 150 C 199.325 150, 200 150.477, 200 151.059 C 200 151.641, 199.550 151.840, 199 151.500 C 198.360 151.105, 198.006 154.236, 198.015 160.191 C 198.026 166.571, 198.336 169.028, 199 168 C 199.828 166.718, 199.972 166.754, 199.985 168.250 C 199.993 169.213, 199.325 170, 198.500 170 C 197.675 170, 196.994 170.338, 196.986 170.750 C 196.979 171.162, 196.701 172.512, 196.370 173.750 C 195.854 175.673, 196.156 176, 198.442 176 C 199.972 176, 200.853 176.429, 200.500 177 C 199.764 178.190, 202.510 178.150, 206 176.919 C 208.495 176.039, 208.494 176.038, 205.750 176.380 C 201.573 176.901, 202.464 175.345, 206.750 174.633 C 208.813 174.291, 212.975 172.877, 216 171.491 C 220.260 169.539, 220.950 169.402, 219.058 170.885 C 217.715 171.937, 214.790 173.357, 212.558 174.040 C 210.326 174.723, 209.055 175.478, 209.733 175.718 C 214.762 177.501, 234.512 163.328, 231.554 160.060 C 229.631 157.935, 229.631 157.920, 231.556 158.546 C 235.281 159.759, 224.452 151.035, 218 147.627 C 206.755 141.686, 198 139.686, 198 143.059 M 97.500 142.934 C 89.694 144.833, 78.457 151.312, 79.643 153.231 C 80.055 153.898, 79.836 154.017, 79.068 153.542 C 77.711 152.703, 71 158.553, 71 160.576 C 71 162.467, 79.666 169.066, 81.317 168.432 C 82.131 168.119, 83.092 168.339, 83.451 168.920 C 83.858 169.579, 83.425 169.758, 82.302 169.395 C 80.970 168.966, 81.108 169.312, 82.832 170.723 C 89.035 175.802, 110.833 181.335, 109.344 177.453 C 108.865 176.205, 109.022 175.896, 109.870 176.420 C 110.731 176.952, 110.927 176.494, 110.548 174.834 C 108.489 165.802, 108.046 162.904, 108.024 158.333 C 108.011 155.492, 107.662 152.978, 107.250 152.747 C 106.838 152.517, 107.013 152.446, 107.640 152.590 C 108.267 152.735, 109.023 151.648, 109.320 150.176 C 109.617 148.704, 110.142 146.771, 110.487 145.879 C 111.347 143.660, 109.379 143.108, 103.689 143.971 C 98.902 144.698, 98.280 143.568, 103 142.721 C 105.500 142.272, 105.500 142.272, 103 142.239 C 101.625 142.220, 99.150 142.533, 97.500 142.934 M 181.500 144.804 C 173.217 149.388, 160.409 157.958, 161.809 157.980 C 162.529 157.991, 162.840 158.450, 162.500 159 C 162.160 159.550, 162.273 160, 162.750 160 C 163.227 160, 164.491 160.700, 165.559 161.555 C 167.434 163.057, 167.426 163.074, 165.316 162.055 C 160.629 159.791, 160.776 161.189, 165.500 163.813 C 168.250 165.340, 174.411 168.907, 179.190 171.741 C 187.880 176.893, 187.880 176.893, 189.057 173.327 C 189.834 170.973, 190.497 170.185, 191.006 171.010 C 191.836 172.353, 194.082 163.551, 193.891 159.701 C 193.831 158.490, 193.214 160.200, 192.519 163.500 C 191.256 169.500, 191.256 169.500, 191.123 161 C 190.982 152.066, 189.554 145.001, 187.639 143.765 C 186.826 143.241, 186.864 143.026, 187.775 143.015 C 189.205 142.998, 190.769 146.531, 191.974 152.500 C 192.548 155.346, 192.812 155.758, 192.890 153.928 C 193.318 143.885, 189.167 140.560, 181.500 144.804 M 114.503 147.250 C 111.371 155.015, 111.771 172.495, 115.035 170.478 C 115.553 170.158, 115.723 170.559, 115.412 171.370 C 112.446 179.098, 131.794 172.689, 145.998 161.238 C 146.273 161.017, 145.686 160.244, 144.695 159.519 C 143.518 158.658, 143.306 158.065, 144.083 157.806 C 145.155 157.448, 131.547 148.832, 123.159 144.557 C 119.998 142.946, 119.713 142.950, 117.866 144.621 C 116.092 146.227, 115.973 146.233, 116.564 144.694 C 116.921 143.762, 116.990 143, 116.716 143 C 116.441 143, 115.446 144.912, 114.503 147.250 M 69.128 166.664 C 70.370 168.170, 70.290 168.216, 68.283 167.146 C 65.261 165.536, 59.095 178.205, 62.021 180.013 C 62.700 180.433, 62.917 181.325, 62.503 181.995 C 61.924 182.932, 61.552 182.900, 60.890 181.857 C 60.266 180.872, 60.026 181.133, 60.015 182.809 C 60.007 184.079, 60.394 184.875, 60.875 184.577 C 61.356 184.280, 61.750 187.001, 61.750 190.625 C 61.750 197.970, 60.145 197.440, 59.855 190 C 59.709 186.256, 59.612 186.051, 59.275 188.777 C 58.195 197.503, 64.059 211.847, 72.067 220.068 C 81.572 229.827, 104.375 236.607, 103.372 229.376 C 103.027 226.894, 103.111 226.774, 103.984 228.500 C 104.802 230.118, 104.886 229.883, 104.422 227.270 C 104.108 225.494, 103.816 219.419, 103.774 213.770 C 103.728 207.537, 103.404 204.483, 102.949 206 C 101.777 209.909, 101.883 206.917, 103.138 200.667 C 103.764 197.550, 104.653 195, 105.113 195 C 105.574 195, 105.512 196.154, 104.975 197.565 C 102.473 204.147, 104.418 201.584, 107.301 194.500 C 110.814 185.870, 110.637 185.041, 105.281 185.015 C 103.063 185.005, 102.217 184.598, 102.559 183.706 C 102.903 182.809, 101.247 182.038, 97.167 181.195 C 89.374 179.586, 80.246 174.926, 74.151 169.446 C 69.210 165.003, 66.536 163.523, 69.128 166.664 M 160 166.993 C 162.180 168.860, 162.221 168.998, 160.316 168.067 C 159.114 167.480, 157.989 166.999, 157.816 166.999 C 157.642 166.998, 157.634 174.211, 157.798 183.028 C 158.003 194.034, 158.430 198.853, 159.160 198.401 C 159.745 198.040, 160.582 198.323, 161.019 199.031 C 162.641 201.656, 175.629 194.339, 182.500 186.931 C 186.500 182.618, 186.500 182.618, 181.015 187.423 C 175.110 192.596, 166.431 197.981, 164 197.981 C 163.175 197.981, 164.872 196.876, 167.772 195.526 C 173.189 193.004, 184.344 183.366, 183.474 181.959 C 183.207 181.525, 183.445 181.018, 184.004 180.832 C 184.932 180.523, 161.286 165.926, 158.642 165.176 C 158.014 164.998, 158.625 165.816, 160 166.993 M 230.514 170.124 C 223.597 175.769, 212.764 180.593, 202.598 182.553 C 198.694 183.306, 197.188 183.805, 199.250 183.662 C 201.313 183.519, 203 183.761, 203 184.201 C 203 184.640, 201.762 185.007, 200.250 185.015 C 195.154 185.044, 194.717 186.110, 197.354 192.075 C 201.891 202.332, 203.171 217.441, 200.377 227.750 C 199.921 229.431, 200.191 230, 201.442 230 C 202.364 230, 202.840 230.450, 202.500 231 C 202.120 231.614, 203.736 231.994, 206.691 231.985 C 210.051 231.974, 211.056 231.689, 210.028 231.038 C 208.276 229.930, 209.082 229.556, 215.500 228.494 C 224.821 226.953, 233.949 220.376, 239.087 211.500 C 240.679 208.750, 241.985 206.974, 241.991 207.554 C 242.052 214.419, 227.094 226.892, 215.018 230.047 C 211.637 230.930, 211.668 230.946, 215.833 230.458 C 229.291 228.880, 243.841 213.851, 245.434 199.881 C 245.709 197.472, 245.694 196.400, 245.402 197.500 C 244.050 202.581, 242.765 206.099, 242.396 205.729 C 242.173 205.506, 242.408 204.014, 242.918 202.412 C 243.428 200.810, 244.159 197.700, 244.542 195.500 C 245.120 192.185, 245.378 191.842, 246.049 193.500 C 246.628 194.928, 246.875 194.070, 246.914 190.500 C 246.948 187.409, 246.646 186.009, 246.124 186.834 C 245.443 187.908, 245.160 187.859, 244.671 186.584 C 244.336 185.713, 244.499 185, 245.031 185 C 247.229 185, 244.764 174.949, 241.081 168.893 C 239.305 165.972, 239.305 165.972, 236.402 168.186 C 233.500 170.400, 233.500 170.400, 235.411 168.194 C 238.813 164.265, 236.644 165.120, 230.514 170.124 M 136 173.115 C 123.842 180.029, 119.362 183.052, 123.391 181.624 C 124.908 181.087, 125.058 181.225, 124.150 182.319 C 123.527 183.070, 123.337 184.004, 123.728 184.395 C 124.119 184.786, 123.553 184.789, 122.470 184.403 C 119.710 183.417, 126.285 190.347, 131.642 194.069 C 136.454 197.413, 146.471 201.383, 148.266 200.657 C 148.945 200.382, 148.488 200.122, 147.250 200.079 C 146.012 200.036, 145 199.592, 145 199.094 C 145 198.595, 145.900 198.423, 147 198.710 C 148.759 199.170, 149.019 198.707, 149.157 194.867 C 149.314 190.500, 149.314 190.500, 150 195.500 C 150.445 198.743, 150.741 194.603, 150.843 183.715 C 151 166.930, 151 166.930, 148.750 168.129 C 146.710 169.216, 146.628 169.172, 147.872 167.664 C 149.862 165.252, 149.690 165.331, 136 173.115 M 112.569 192.079 C 109.011 200.891, 108.022 205.656, 108.016 214 C 108.012 221.896, 109.763 231.959, 110.689 229.356 C 110.913 228.727, 111.884 228.418, 112.847 228.670 C 113.811 228.922, 116.584 228.444, 119.010 227.608 C 125.313 225.437, 125.164 226.415, 118.820 228.852 C 115.894 229.976, 114.175 230.909, 115 230.924 C 122.174 231.060, 146.776 213.683, 144.538 210.062 C 144.160 209.450, 144.222 209.015, 144.676 209.094 C 146.891 209.478, 147.195 208.858, 145.441 207.532 C 143.526 206.083, 143.527 206.063, 145.500 206.015 C 146.600 205.988, 143.888 204.501, 139.474 202.711 C 130.749 199.172, 126.614 196.628, 120.588 191.093 C 116.676 187.500, 116.676 187.500, 119.015 191 C 121.355 194.500, 121.355 194.500, 118.678 192.076 C 117.205 190.742, 115.968 190.067, 115.930 190.576 C 115.891 191.084, 115.521 190.636, 115.107 189.579 C 114.477 187.973, 114.062 188.382, 112.569 192.079 M 184.500 192.578 C 179.433 196.968, 171.619 201.523, 164.804 204.060 C 161.887 205.146, 160.512 205.844, 161.750 205.611 C 162.988 205.378, 164 205.595, 164 206.094 C 164 206.592, 163.325 207, 162.500 207 C 160.544 207, 160.606 207.873, 162.743 210.421 C 163.972 211.887, 163.630 211.763, 161.582 210 C 158.168 207.061, 158.959 208.817, 163.722 214.750 C 165.599 217.088, 167.638 219, 168.254 219 C 168.870 219, 168.052 217.537, 166.437 215.750 C 163.500 212.500, 163.500 212.500, 166.714 215.403 C 168.482 217, 169.711 218.658, 169.446 219.088 C 168.360 220.844, 182.237 229.037, 188.500 230.337 C 190.648 230.783, 190.080 230.279, 186.500 228.563 C 180.354 225.617, 180.813 225.360, 187.608 227.942 C 191.437 229.398, 193.002 229.598, 193.858 228.742 C 194.714 227.886, 195.025 227.963, 195.100 229.050 C 195.287 231.779, 196.801 225.506, 196.801 222 C 196.801 218.833, 196.725 218.738, 196 221 C 195.465 222.671, 195.166 220.461, 195.100 214.332 C 195.045 209.289, 194.699 204.378, 194.330 203.418 C 193.873 202.227, 194.032 201.902, 194.830 202.395 C 195.474 202.793, 196.036 204.554, 196.079 206.309 C 196.122 208.064, 196.393 208.913, 196.680 208.196 C 197.551 206.024, 196.001 200, 194.571 200 C 193.835 200, 192.978 198.988, 192.666 197.750 C 192.108 195.535, 192.124 195.531, 193.653 197.500 C 195.159 199.439, 195.185 199.423, 194.479 197 C 193.421 193.369, 191.087 189.256, 191.040 190.941 C 191.008 192.099, 190.755 192.061, 189.750 190.748 C 188.626 189.279, 188.096 189.464, 184.500 192.578 M 147.231 215.253 C 141.224 223.176, 129.648 231.239, 120.250 234.047 C 115.842 235.364, 115.234 236.563, 117.067 240.316 C 117.978 242.181, 117.836 242.135, 116.089 240 C 113.266 236.549, 113.485 238.225, 116.477 242.963 C 131.221 266.320, 161.889 269.885, 182.658 250.656 C 193.693 240.440, 194.067 236.958, 184.500 233.527 C 176.089 230.510, 168.437 225.270, 161.497 217.774 C 153.424 209.054, 152.107 208.821, 147.231 215.253 M 83 233.536 C 83 234.729, 85.541 236.656, 86.784 236.405 C 87.480 236.265, 87.586 236.380, 87.019 236.660 C 86.452 236.941, 86.293 237.695, 86.666 238.335 C 87.039 238.976, 86.364 238.640, 85.166 237.589 C 83.968 236.539, 82.754 235.913, 82.468 236.198 C 81.819 236.847, 88.519 242.315, 96.809 247.902 C 105.892 254.024, 126.447 263.291, 120.766 258.703 C 118.780 257.099, 119.425 255.842, 121.771 256.743 C 122.638 257.075, 121.517 255.517, 119.281 253.281 C 117.044 251.044, 113.677 246.578, 111.799 243.357 C 108.292 237.342, 103.001 234.763, 100.956 238.072 C 100.541 238.742, 99.453 239.004, 98.538 238.653 C 97.622 238.302, 97.153 237.561, 97.496 237.007 C 97.866 236.408, 96.779 236.006, 94.809 236.015 C 92.305 236.027, 91.865 236.266, 93 237 C 94.216 237.786, 94.081 237.972, 92.281 237.985 C 90.717 237.995, 90.233 237.558, 90.638 236.500 C 91.041 235.450, 90.562 235, 89.041 235 C 87.846 235, 85.998 234.534, 84.934 233.965 C 83.870 233.395, 83 233.203, 83 233.536 M 217.500 234.646 C 215.300 235.473, 209.990 236.407, 205.699 236.721 C 199.865 237.149, 198.024 237.621, 198.398 238.595 C 198.676 239.319, 198.365 239.707, 197.699 239.469 C 197.040 239.233, 195.671 240.840, 194.658 243.040 C 193.645 245.240, 190.558 249.511, 187.798 252.531 C 185.038 255.551, 183.582 257.714, 184.563 257.337 C 185.947 256.807, 186.203 257.029, 185.705 258.326 C 184.787 260.719, 185.706 260.482, 195.054 255.914 C 205.011 251.048, 217.482 243.149, 216.599 242.266 C 216.254 241.921, 217.216 240.317, 218.736 238.701 C 221.500 235.762, 221.500 235.762, 219 236.344 C 216.731 236.871, 216.754 236.818, 219.250 235.769 C 221.291 234.912, 223.437 232.595, 221.750 233.070 C 221.613 233.109, 219.700 233.818, 217.500 234.646" stroke="none" fill="#04cd7d" fill-rule="evenodd"/></svg>